<svg width="36" height="36" viewBox="0 0 36 36" fill="none" xmlns="http://www.w3.org/2000/svg">
<g opacity="0.3">
<path d="M9.14863 30.0793C9.18708 30.6302 9.66488 31.0457 10.2158 31.0072C10.7668 30.9688 11.1822 30.491 11.1438 29.94L9.14863 30.0793ZM10.1376 29.8857L11.1351 29.816V29.816L10.1376 29.8857ZM7.2218 24.7045L7.78607 23.8789H7.78607L7.2218 24.7045ZM5.38128 23.4465L4.73613 24.2106C4.76203 24.2324 4.78903 24.253 4.81701 24.2721L5.38128 23.4465ZM4.28544 22.5212L4.93058 21.7572H4.93058L4.28544 22.5212ZM6.03583 9.22084L5.62708 8.30819V8.3082L6.03583 9.22084ZM6.19067 9.15149L5.78192 8.23885H5.78192L6.19067 9.15149ZM17.3325 3.65393L17.6909 2.72039V2.72039L17.3325 3.65393ZM17.9385 3.88665L17.5801 4.82019L17.5801 4.82019L17.9385 3.88665ZM18.5837 3.87787L18.2003 2.9543L18.2003 2.9543L18.5837 3.87787ZM19.3643 3.55379L19.7478 4.47735L19.3643 3.55379ZM30.8304 22.2211L31.3461 23.0778H31.3461L30.8304 22.2211ZM30.3836 22.49L29.8679 21.6333H29.8679L30.3836 22.49ZM11.3135 13.7694L10.5001 13.1876L10.5001 13.1876L11.3135 13.7694ZM11.5363 13.4578L12.3497 14.0395L12.3497 14.0395L11.5363 13.4578ZM17.3512 13.1454L18.1015 12.4843V12.4843L17.3512 13.1454ZM17.6974 13.5383L16.9471 14.1994L17.5817 14.9196L18.3273 14.315L17.6974 13.5383ZM18.7368 12.6953L18.1069 11.9186L18.7368 12.6953ZM24.5094 14.5421L25.4628 14.2405V14.2405L24.5094 14.5421ZM24.5719 14.7397L23.6184 15.0413L23.6184 15.0413L24.5719 14.7397ZM18.7188 24.6846L18.5457 25.6695L18.7188 24.6846ZM17.6974 24.5051L17.3435 25.4404C17.4021 25.4625 17.4626 25.4792 17.5243 25.49L17.6974 24.5051ZM16.4918 24.0489L16.8457 23.1137H16.8457L16.4918 24.0489ZM18.6696 24.1587L19.0053 25.1007L19.0053 25.1007L18.6696 24.1587ZM10.8214 18.4222L11.7676 18.0986L11.7676 18.0986L10.8214 18.4222ZM10.6971 18.0589L9.75093 18.3826L9.75093 18.3826L10.6971 18.0589ZM11.9971 20.6485L12.7967 20.048L11.9971 20.6485ZM23.8028 20.1434L24.6313 20.7033L23.8028 20.1434ZM29.5518 8.3268L29.215 9.26839L29.215 9.26839L29.5518 8.3268ZM29.0647 7.84904L28.1358 8.21939L29.0647 7.84904ZM6.64111 8.66724L7.57605 9.02206L7.57605 9.02206L6.64111 8.66724ZM11.811 32.6065C11.594 33.1143 11.8297 33.702 12.3376 33.919C12.8454 34.1361 13.4331 33.9003 13.6501 33.3924L11.811 32.6065ZM13.07 32.2051L12.1505 31.8122V31.8122L13.07 32.2051ZM15.8435 27.4614L15.0508 26.8518L15.0508 26.8518L15.8435 27.4614ZM16.9758 27.6295C17.3125 27.1917 17.2305 26.5639 16.7928 26.2272C16.355 25.8905 15.7271 25.9724 15.3904 26.4102L16.9758 27.6295ZM11.1438 29.94L11.1351 29.816L9.13998 29.9553L9.14863 30.0793L11.1438 29.94ZM7.78607 23.8789L5.94554 22.6209L4.81701 24.2721L6.65754 25.53L7.78607 23.8789ZM6.02643 22.6825L4.93058 21.7572L3.64029 23.2853L4.73613 24.2106L6.02643 22.6825ZM6.44457 10.1335L6.59941 10.0641L5.78192 8.23885L5.62708 8.30819L6.44457 10.1335ZM16.974 4.58747L17.5801 4.82019L18.297 2.95311L17.6909 2.72039L16.974 4.58747ZM18.9672 4.80143L19.7478 4.47735L18.9809 2.63022L18.2003 2.9543L18.9672 4.80143ZM30.3147 21.3643L29.8679 21.6333L30.8993 23.3468L31.3461 23.0778L30.3147 21.3643ZM12.1268 14.3511L12.3497 14.0395L10.723 12.876L10.5001 13.1876L12.1268 14.3511ZM16.6009 13.8065L16.9471 14.1994L18.4477 12.8772L18.1015 12.4843L16.6009 13.8065ZM18.3273 14.315L19.3667 13.472L18.1069 11.9186L17.0675 12.7616L18.3273 14.315ZM23.5559 14.8436L23.6184 15.0413L25.5253 14.4382L25.4628 14.2405L23.5559 14.8436ZM18.8918 23.6997L17.8705 23.5202L17.5243 25.49L18.5457 25.6695L18.8918 23.6997ZM18.0513 23.5698L16.8457 23.1137L16.1379 24.9842L17.3435 25.4404L18.0513 23.5698ZM18.334 23.2167L17.3618 23.5631L18.033 25.4471L19.0053 25.1007L18.334 23.2167ZM11.7676 18.0986L11.6433 17.7352L9.75093 18.3826L9.87522 18.7459L11.7676 18.0986ZM12.7967 20.048C12.3568 19.4622 12.0089 18.8041 11.7676 18.0986L9.87522 18.7459C10.1837 19.6477 10.6298 20.4931 11.1975 21.249L12.7967 20.048ZM22.9743 19.5834C21.8251 21.2839 20.199 22.5521 18.334 23.2167L19.0053 25.1007C21.2835 24.2889 23.2504 22.7467 24.6313 20.7033L22.9743 19.5834ZM23.6184 15.0413C24.1053 16.5808 23.8624 18.2692 22.9743 19.5834L24.6313 20.7033C25.8658 18.8766 26.194 16.5526 25.5253 14.4382L23.6184 15.0413ZM19.3667 13.472C20.8027 12.3073 22.953 12.9372 23.5559 14.8436L25.4628 14.2405C24.4606 11.0717 20.7045 9.81196 18.1069 11.9186L19.3667 13.472ZM12.3497 14.0395C13.3991 12.5724 15.4245 12.4713 16.6009 13.8065L18.1015 12.4843C16.0659 10.174 12.5136 10.3725 10.723 12.876L12.3497 14.0395ZM16.8457 23.1137C15.2555 22.512 13.8513 21.4522 12.7967 20.048L11.1975 21.249C12.4739 22.9486 14.1841 24.245 16.1379 24.9842L16.8457 23.1137ZM29.8679 21.6333C26.5429 23.6347 22.6648 24.3627 18.8918 23.6997L18.5457 25.6695C22.7993 26.417 27.166 25.594 30.8993 23.3468L29.8679 21.6333ZM29.215 9.26839C34.3467 11.1038 35.0618 18.5069 30.3147 21.3643L31.3461 23.0778C37.499 19.3742 36.6521 9.80426 29.8885 7.38522L29.215 9.26839ZM28.1358 8.21939C28.3271 8.69919 28.7133 9.08895 29.215 9.26839L29.8885 7.38522C29.9503 7.40731 29.9816 7.44858 29.9936 7.47869L28.1358 8.21939ZM19.7478 4.47735C23.0069 3.12422 26.7506 4.74511 28.1358 8.21939L29.9936 7.47869C28.221 3.03275 23.3335 0.823101 18.9809 2.63022L19.7478 4.47735ZM7.57605 9.02206C9.0731 5.07743 13.2516 3.1581 16.974 4.58747L17.6909 2.72039C12.8725 0.870139 7.57224 3.39549 5.70618 8.31242L7.57605 9.02206ZM6.59941 10.0641C7.05672 9.85932 7.40267 9.47891 7.57605 9.02206L5.70618 8.31241C5.71419 8.2913 5.73589 8.25946 5.78192 8.23885L6.59941 10.0641ZM4.93058 21.7572C1.0868 18.5116 1.95579 12.1439 6.44457 10.1335L5.62708 8.3082C-0.248555 10.9397 -1.29399 19.1189 3.64029 23.2853L4.93058 21.7572ZM17.5801 4.82019C18.0285 4.9924 18.5238 4.98553 18.9672 4.80143L18.2003 2.9543C18.2302 2.94189 18.2662 2.94127 18.297 2.95311L17.5801 4.82019ZM10.5001 13.1876C9.4297 14.6842 9.15263 16.6336 9.75093 18.3826L11.6433 17.7352C11.2512 16.589 11.4373 15.3152 12.1268 14.3511L10.5001 13.1876ZM11.1351 29.816C10.9674 27.4131 9.73803 25.213 7.78607 23.8789L6.65754 25.53C8.08557 26.5061 9.0132 28.1388 9.13998 29.9553L11.1351 29.816ZM13.6501 33.3924L13.9896 32.5981L12.1505 31.8122L11.811 32.6065L13.6501 33.3924ZM16.6362 28.0711L16.9758 27.6295L15.3904 26.4102L15.0508 26.8518L16.6362 28.0711ZM13.9896 32.5981C14.6833 30.975 15.573 29.4535 16.6362 28.0711L15.0508 26.8518C13.8841 28.3689 12.9095 30.0361 12.1505 31.8122L13.9896 32.5981Z" fill="white"/>
</g>
</svg>
