<svg width="36" height="36" viewBox="0 0 36 36" fill="none" xmlns="http://www.w3.org/2000/svg">
<g opacity="0.3">
<path d="M23.6989 15.3162C23.6989 15.3162 23.6773 14.729 24 12.7502C24.3227 10.7714 24.5634 8.84107 24.2005 7.60692C22.5235 1.9042 15.2042 1.35466 12.8034 6.75122L11.7791 9.05386L8.56293 7.98766C5.57824 7.37289 2.84522 8.69421 1.92818 11.6463L1.82864 11.9667C1.06196 14.4348 1.66058 17.1559 3.37493 18.9955L3.92464 19.5853C4.79819 20.5227 5.81683 21.2901 6.93515 21.8534L12.75 24.7502L18.3799 26.9404L19.2127 27.4194M26.547 19.3346L25.337 17.0329C24.3452 15.1464 22.2193 14.3182 20.3307 15.0827C17.9039 16.0649 16.6081 18.9036 17.3725 21.5631L18.0964 24.0817C18.1738 24.3509 18.2695 24.6135 18.3829 24.8675L22.0131 33L29.6806 29.3157C31.0141 28.5641 31.6252 28.2494 32.8365 26.9403C34.0479 25.6311 34.8064 23.8961 34.3805 22.0955C33.6161 18.8645 30.2375 17.2504 27.4884 18.8029L26.547 19.3346Z" stroke="white" stroke-width="2" stroke-linecap="round"/>
</g>
</svg>
