<svg width="195" height="127" viewBox="0 0 195 127" fill="none" xmlns="http://www.w3.org/2000/svg">
<g clip-path="url(#clip0_301_5)">
<path d="M14.5488 126.515H0V99.564H14.105C16.5362 99.564 18.4465 100.223 19.7972 101.561C21.1478 102.899 21.8232 104.508 21.8232 106.428C21.8232 108.076 21.3794 109.453 20.4918 110.558C19.6042 111.663 18.5044 112.342 17.1923 112.613C18.6394 112.826 19.855 113.563 20.8584 114.843C21.8425 116.103 22.3442 117.577 22.3442 119.244C22.3442 121.338 21.6688 123.083 20.2988 124.46C18.9289 125.836 17.0186 126.515 14.5488 126.515ZM12.8701 110.364C13.8349 110.364 14.6067 110.092 15.1662 109.549C15.7258 109.007 16.0152 108.309 16.0152 107.455C16.0152 106.602 15.7258 105.885 15.1469 105.342C14.5681 104.799 13.8156 104.508 12.8701 104.508H5.71146V110.364H12.8701ZM13.063 121.551C14.1436 121.551 14.9733 121.28 15.5907 120.718C16.2082 120.175 16.5169 119.399 16.5169 118.43C16.5169 117.538 16.2082 116.801 15.5907 116.181C14.9733 115.58 14.1243 115.269 13.063 115.269H5.71146V121.532H13.063V121.551Z" fill="white"/>
<path d="M31.6445 126.515H26.5312V107.01H31.6445V109.685C32.3585 108.774 33.2847 108.018 34.4231 107.417C35.5422 106.816 36.6807 106.525 37.8384 106.525V111.527C37.4911 111.45 37.028 111.411 36.4298 111.411C35.5808 111.411 34.6546 111.624 33.6899 112.051C32.7251 112.477 32.0498 113.001 31.6445 113.621V126.515Z" fill="white"/>
<path d="M57.7706 126.515H52.6766V124.499C51.2873 126.166 49.2227 127 46.5214 127C44.7848 127 43.2218 126.438 41.8326 125.274C40.4433 124.13 39.7679 122.54 39.7679 120.524C39.7679 118.43 40.4433 116.84 41.794 115.793C43.1447 114.746 44.7269 114.222 46.5214 114.222C49.2806 114.222 51.3259 115.017 52.6766 116.607V113.99C52.6766 113.001 52.2907 112.206 51.5189 111.605C50.7471 111.004 49.7051 110.713 48.4316 110.713C46.3091 110.713 44.4182 111.489 42.7587 113.02L40.8292 109.588C43.1254 107.533 45.9618 106.525 49.3192 106.525C51.8083 106.525 53.8536 107.107 55.4359 108.27C57.0181 109.433 57.8092 111.314 57.8092 113.932V126.515H57.7706ZM48.5667 123.529C50.4769 123.529 51.8276 122.967 52.6766 121.823V119.399C51.8469 118.275 50.4769 117.693 48.5667 117.693C47.5247 117.693 46.6564 117.965 45.9618 118.488C45.2672 119.012 44.9198 119.729 44.9198 120.66C44.9198 121.552 45.2672 122.25 45.9618 122.754C46.6564 123.277 47.5247 123.529 48.5667 123.529Z" fill="white"/>
<path d="M65.373 104.896C64.5433 104.896 63.8294 104.586 63.2312 103.985C62.6331 103.384 62.3243 102.666 62.3243 101.833C62.3243 100.999 62.6331 100.281 63.2312 99.6998C63.8294 99.0987 64.5433 98.8079 65.373 98.8079C66.222 98.8079 66.9553 99.0987 67.5534 99.6998C68.1516 100.301 68.441 100.999 68.441 101.833C68.441 102.666 68.1516 103.384 67.5534 103.985C66.9553 104.605 66.2413 104.896 65.373 104.896ZM67.9586 126.515H62.8453V107.01H67.9586V126.515Z" fill="white"/>
<path d="M91.229 126.515H86.1157V114.727C86.1157 112.303 84.9193 111.081 82.546 111.081C80.6936 111.081 79.2272 111.857 78.1273 113.389V126.515H73.014V107.01H78.1273V109.55C79.8253 107.533 82.0829 106.525 84.9193 106.525C87.0033 106.525 88.5855 107.068 89.6467 108.173C90.708 109.278 91.229 110.791 91.229 112.729V126.515Z" fill="white"/>
<path d="M120.539 126.515H114.789V115.211H102.131V126.515H96.4194V99.564H102.131V110.151H114.789V99.564H120.539V126.515Z" fill="white"/>
<path d="M134.817 127C131.807 127 129.338 126.05 127.369 124.169C125.421 122.288 124.436 119.807 124.436 116.743C124.436 113.854 125.382 111.43 127.273 109.472C129.164 107.514 131.576 106.525 134.489 106.525C137.384 106.525 139.738 107.514 141.532 109.491C143.327 111.469 144.234 114.067 144.234 117.267V118.391H129.801C129.955 119.69 130.534 120.757 131.537 121.629C132.521 122.482 133.814 122.928 135.396 122.928C136.245 122.928 137.191 122.754 138.194 122.405C139.197 122.056 139.989 121.59 140.587 120.989L142.844 124.305C140.857 126.108 138.194 127 134.817 127ZM139.275 114.92C139.197 113.815 138.754 112.826 137.963 111.935C137.171 111.043 136.014 110.597 134.489 110.597C133.042 110.597 131.923 111.043 131.113 111.915C130.302 112.788 129.839 113.796 129.704 114.92H139.275Z" fill="white"/>
<path d="M164.687 126.515H159.574V124.499C158.184 126.166 156.12 127 153.418 127C151.682 127 150.119 126.438 148.729 125.274C147.34 124.13 146.665 122.54 146.665 120.524C146.665 118.43 147.34 116.84 148.691 115.793C150.042 114.746 151.624 114.222 153.418 114.222C156.178 114.222 158.223 115.017 159.574 116.607V113.99C159.574 113.001 159.188 112.206 158.416 111.605C157.644 111.004 156.602 110.713 155.329 110.713C153.206 110.713 151.315 111.489 149.656 113.02L147.726 109.588C150.022 107.533 152.859 106.525 156.216 106.525C158.705 106.525 160.751 107.107 162.333 108.27C163.915 109.433 164.706 111.314 164.706 113.932V126.515H164.687ZM155.483 123.529C157.393 123.529 158.744 122.967 159.593 121.823V119.399C158.763 118.275 157.393 117.693 155.483 117.693C154.441 117.693 153.573 117.965 152.878 118.488C152.183 119.012 151.836 119.729 151.836 120.66C151.836 121.552 152.183 122.25 152.878 122.754C153.573 123.277 154.441 123.529 155.483 123.529Z" fill="white"/>
<path d="M174.856 126.515H169.742V107.01H174.856V109.685C175.589 108.774 176.496 108.018 177.634 107.417C178.753 106.816 179.892 106.525 181.049 106.525V111.527C180.702 111.45 180.239 111.411 179.641 111.411C178.792 111.411 177.866 111.624 176.901 112.051C175.936 112.477 175.261 113.001 174.856 113.621V126.515Z" fill="white"/>
<path d="M190.736 127C188.941 127 187.571 126.535 186.626 125.623C185.68 124.712 185.217 123.394 185.217 121.668V111.488H181.995V107.01H185.237V101.677H190.388V107.01H194.325V111.488H190.388V120.291C190.388 120.912 190.543 121.416 190.871 121.823C191.199 122.23 191.623 122.424 192.164 122.424C192.974 122.424 193.553 122.23 193.939 121.862L195.019 125.74C194.074 126.593 192.646 127 190.736 127Z" fill="white"/>
<path d="M86.8682 67.3001C86.27 68.1533 85.6719 69.0646 85.093 69.9759C82.4881 74.1446 80.1727 78.9919 78.2238 84.3821H84.5527C86.1928 80.194 88.0645 76.4131 90.1098 73.1363C90.6308 72.3026 91.1904 71.4688 91.7306 70.6933C91.7499 70.6739 91.7692 70.6351 91.7885 70.6157C93.0041 68.7543 94.5671 66.9899 96.5352 65.1867C94.2583 64.8765 91.8657 64.4305 89.5503 63.8101C88.5469 64.954 87.6593 66.1174 86.8682 67.3001Z" fill="white"/>
<path d="M146.453 32.1279C146.453 32.1085 146.453 32.0892 146.433 32.0504C146.26 30.8289 145.97 29.6267 145.565 28.4634C143.693 22.8792 139.429 18.1676 133.872 15.5307C133.042 15.1235 132.213 14.7745 131.364 14.4837C129.974 11.3232 125.884 4.16855 116.757 1.27954C107.842 -1.5513 100.857 1.00809 98.0403 2.40412C95.7441 1.66733 90.843 0.368243 85.2281 0.659083C78.1852 1.02748 68.7304 3.99404 63.154 15.8603C59.7195 17.3921 50.3805 22.5302 48.6825 33.7179C47.7563 39.7673 48.8561 45.1576 51.9434 49.6947C54.1624 52.9521 57.3654 55.7247 61.5139 57.9351H61.5332C68.6918 61.7742 73.9788 65.4194 71.5669 74.1834H77.6642C78.7834 68.735 77.6642 63.9652 74.3647 60.0098C71.4511 56.5003 67.3412 54.2899 64.3311 52.6806H64.3118C56.5357 48.5119 53.352 42.5982 54.5483 34.6098C55.1657 30.5186 57.2882 27.0092 60.8579 24.1783C63.6557 21.9485 66.3378 20.9791 66.3571 20.9791C67.1482 20.7076 67.785 20.1066 68.113 19.3504C71.5283 11.3814 77.3362 7.09633 85.3824 6.6116C91.7113 6.24321 97.1527 8.39542 97.2105 8.41481C98.1174 8.78321 99.1208 8.70565 99.9312 8.16275C100.298 7.93007 106.376 4.24611 115.001 6.98C123.607 9.6945 126.231 17.489 126.327 17.8186C126.617 18.7881 127.389 19.5249 128.373 19.7963C129.376 20.0678 130.36 20.4556 131.325 20.9209C131.344 20.9209 131.344 20.9403 131.364 20.9403C135.473 22.8986 138.619 26.3499 139.989 30.4023C140.259 31.2166 140.471 32.0698 140.606 32.9229C141.436 39.6898 137.828 44.634 134.663 47.5812C130.572 51.4009 124.784 54.2124 118.821 55.3369C118.783 55.3369 118.744 55.3563 118.706 55.3563C117.509 55.6278 116.274 55.8605 115.04 56.0544C112.57 56.4227 110.042 56.6166 107.476 56.636C113.38 51.9826 118.995 46.4373 119.806 37.8672C119.806 37.809 119.806 37.7508 119.825 37.6927C119.863 36.8202 119.825 35.9282 119.709 35.0751C119.342 32.2637 118.262 29.7431 116.487 27.5908C112.763 23.1119 106.569 21.4444 100.684 23.3446C100.664 23.3446 100.645 23.364 100.607 23.364C99.6225 23.713 98.677 24.1783 97.8087 24.7406C97.1334 25.1672 96.5159 25.6713 95.937 26.2336C93.1585 23.8099 89.1258 22.7629 84.9386 23.5772C84.9193 23.5772 84.8807 23.5966 84.8615 23.5966C81.369 24.3722 78.7062 26.156 76.4872 29.1808C76.4679 29.2002 76.4679 29.2195 76.4486 29.2389C74.0946 32.6127 73.207 36.6069 73.9016 40.8144C74.4805 44.3626 76.1978 47.9496 78.7255 50.9162C79.5552 51.8857 80.4814 52.7969 81.4655 53.6113C82.5653 54.5808 83.7616 55.4921 85.0737 56.3452C87.3506 57.8188 89.9362 59.1179 92.7147 60.1649C96.13 61.367 101.089 62.5692 107.321 62.5885C108.576 62.5885 109.81 62.5498 111.045 62.4722C111.18 62.4722 111.316 62.4528 111.451 62.4334C112.956 62.3171 114.422 62.162 115.889 61.9487C117.259 61.7354 118.609 61.4834 119.941 61.1925C134.219 58.4586 148.344 47.3679 146.453 32.1279ZM98.6577 55.8023C98.5033 55.7635 98.3683 55.7247 98.2139 55.686C94.5285 54.6583 91.0939 53.146 88.2767 51.3234C87.1962 50.6253 86.2121 49.8692 85.3245 49.0742C85.3052 49.0548 85.2667 49.0354 85.2474 48.9966C84.5141 48.3956 83.8388 47.7169 83.202 46.9995C80.1727 43.4319 77.8379 37.5376 81.2532 32.6321C81.8899 31.7595 82.546 31.0809 83.2985 30.5768C83.2985 30.5768 83.3178 30.5768 83.3371 30.5574C84.1282 29.9951 85.0351 29.6267 86.0771 29.394C86.3858 29.3359 86.7138 29.2971 87.0611 29.2777C87.9873 29.1808 89.0486 29.2583 90.1291 29.6461C90.1677 29.6655 90.187 29.6655 90.2256 29.6849C90.2642 29.7043 90.3221 29.7237 90.3607 29.7237C90.4764 29.7624 90.5922 29.8206 90.708 29.8788C90.7659 29.8982 90.8237 29.9369 90.8816 29.9563C93.2357 31.0615 94.8179 32.729 95.6669 33.8536C96.8053 32.3412 99.2366 29.7818 102.98 28.8705C103.867 28.6379 104.755 28.5215 105.604 28.5409C105.643 28.5409 105.681 28.5409 105.72 28.5409C106.106 28.5409 106.434 28.5797 106.723 28.6185C108.749 28.8899 110.582 29.8594 111.875 31.4105C112.917 32.6708 113.554 34.1638 113.766 35.8313C113.824 36.3354 113.863 36.8589 113.843 37.3824C113.071 45.0412 106.82 49.714 100.201 54.6583C99.719 55.0267 99.1787 55.4145 98.6577 55.8023Z" fill="white"/>
</g>
<defs>
<clipPath id="clip0_301_5">
<rect width="195" height="127" fill="white"/>
</clipPath>
</defs>
</svg>
