<svg width="86" height="86" viewBox="0 0 86 86" fill="none" xmlns="http://www.w3.org/2000/svg">
<rect width="86" height="86" rx="43" fill="#4D17C0"/>
<path d="M25.12 34.6501C25.12 34.6501 17.843 23.1062 0 38.2425C0 38.2425 0.0462684 39.0624 1.84428 40.6729C3.6417 42.2828 14.5138 50.7495 23.6534 41.7368C32.793 32.7244 25.12 34.6501 25.12 34.6501Z" fill="black"/>
<path d="M22.9354 41.2864C22.9243 41.2966 22.9141 41.3065 22.9039 41.3166C13.7824 50.0636 2.85523 40.4732 2.3946 40.0608C1.58246 39.3332 1.18293 38.8064 0.989136 38.4875C7.46097 33.112 13.3863 30.6595 18.1495 31.3894C22.4622 32.0501 24.4031 35.0579 24.4226 35.0881L24.7401 35.592L25.3203 35.4483C26.2587 35.2156 27.2021 35.2877 27.2967 35.4564C27.3022 35.4663 27.7203 36.5694 23.0742 41.1514C23.0273 41.197 22.9816 41.242 22.9354 41.2864Z" fill="#FDCF00"/>
<path d="M20.9365 39.21L20.9048 39.2402C17.9088 42.113 14.4548 42.8205 10.3434 41.402C8.19766 40.661 6.41566 39.5158 5.35938 38.7424C10.1065 35.321 14.4239 33.7323 17.7121 34.2359C20.521 34.6658 21.8688 36.4682 22.005 36.6594L22.2974 37.1243L22.5596 37.5411C22.1464 37.991 21.6477 38.5095 21.0459 39.1028C21.0081 39.1406 20.9723 39.1754 20.9365 39.21Z" fill="#350700"/>
<path d="M60.8797 34.6501C60.8797 34.6501 68.1567 23.1062 86 38.2425C86 38.2425 85.9535 39.0624 84.1558 40.6729C82.358 42.2828 71.4859 50.7495 62.3466 41.7368C53.2067 32.7244 60.8797 34.6501 60.8797 34.6501Z" fill="black"/>
<path d="M63.0644 41.2864C63.0757 41.2966 63.0859 41.3065 63.0961 41.3166C72.2174 50.0636 83.1448 40.4732 83.6052 40.0608C84.4173 39.3332 84.8168 38.8064 85.0106 38.4875C78.5391 33.112 72.6134 30.6595 67.8503 31.3894C63.5378 32.0501 61.597 35.0579 61.5772 35.0881L61.26 35.592L60.6798 35.4483C59.7413 35.2156 58.798 35.2877 58.7031 35.4564C58.6979 35.4663 58.2797 36.5694 62.9256 41.1514C62.9724 41.197 63.0184 41.242 63.0644 41.2864Z" fill="#FDCF00"/>
<path d="M65.0632 39.21L65.0949 39.2402C68.0912 42.113 71.5449 42.8205 75.6563 41.402C77.8023 40.661 79.584 39.5158 80.6406 38.7424C75.8934 35.321 71.5758 33.7323 68.2879 34.2359C65.4787 34.6658 64.1312 36.4682 63.9947 36.6594L63.7025 37.1243L63.4401 37.5411C63.8533 37.991 64.3523 38.5095 64.9541 39.1028C64.9916 39.1406 65.0274 39.1754 65.0632 39.21Z" fill="#350700"/>
<path d="M42.9998 78.3555C34.739 78.3555 27.1815 76.0677 21.7188 71.9135C15.8429 67.4456 12.7372 61.2372 12.7372 53.9584C12.7372 46.6036 15.9622 39.0431 21.5855 33.2166C27.4757 27.1133 35.0806 23.7523 42.9998 23.7523C50.9196 23.7523 58.5245 27.1133 64.4147 33.2166C70.0377 39.0431 73.263 46.6036 73.263 53.9584C73.263 61.2372 70.1573 67.4456 64.2811 71.9135C58.819 76.0677 51.2606 78.3555 42.9998 78.3555Z" fill="black"/>
<path d="M72.0986 53.9581C72.0986 68.3947 59.0708 77.1934 42.9999 77.1934C26.9293 77.1934 13.9012 68.3947 13.9012 53.9581C13.9012 39.5217 26.9293 24.914 42.9999 24.914C59.0708 24.914 72.0986 39.5217 72.0986 53.9581Z" fill="#FDCF00"/>
<path d="M34.5194 48.5391C32.2238 48.5391 30.3562 46.675 30.3562 44.3834C30.3562 42.0921 32.2238 40.2272 34.5194 40.2272C36.8161 40.2272 38.6842 42.0921 38.6842 44.3834C38.6842 46.675 36.8161 48.5391 34.5194 48.5391Z" fill="white"/>
<path d="M34.5195 47.6677C32.706 47.6677 31.2299 46.194 31.2299 44.3837C31.2299 42.5725 32.706 41.0988 34.5195 41.0988C36.3346 41.0988 37.8114 42.5725 37.8114 44.3837C37.8114 46.194 36.3346 47.6677 34.5195 47.6677Z" fill="black"/>
<path d="M34.5195 47.2615C32.9304 47.2615 31.637 45.9705 31.637 44.3838C31.637 42.7965 32.9304 41.5055 34.5195 41.5055C36.1097 41.5055 37.4037 42.7965 37.4037 44.3838C37.4037 45.9705 36.1097 47.2615 34.5195 47.2615Z" fill="#531918"/>
<path d="M34.52 46.6807C33.2516 46.6807 32.2195 45.6505 32.2195 44.3839C32.2195 43.1167 33.2516 42.0859 34.52 42.0859C35.7884 42.0859 36.8211 43.1167 36.8211 44.3839C36.8211 45.6505 35.7884 46.6807 34.52 46.6807Z" fill="black"/>
<path d="M35.8861 43.5007C35.8861 44.0046 35.477 44.4136 34.9716 44.4136C34.467 44.4136 34.0579 44.0046 34.0579 43.5007C34.0579 42.9971 34.467 42.5884 34.9716 42.5884C35.477 42.5884 35.8861 42.9971 35.8861 43.5007Z" fill="white"/>
<path d="M51.4811 48.5391C49.1849 48.5391 47.3168 46.675 47.3168 44.3834C47.3168 42.0921 49.1849 40.2281 51.4811 40.2281C53.7767 40.2281 55.6437 42.0921 55.6437 44.3834C55.6437 46.675 53.7767 48.5391 51.4811 48.5391Z" fill="white"/>
<path d="M51.4812 47.6677C53.2946 47.6677 54.7714 46.194 54.7714 44.3837C54.7714 42.5725 53.2946 41.0988 51.4812 41.0988C49.6666 41.0988 48.1898 42.5725 48.1898 44.3837C48.1898 46.194 49.6666 47.6677 51.4812 47.6677Z" fill="black"/>
<path d="M51.4812 47.2615C53.0709 47.2615 54.3637 45.9705 54.3637 44.3838C54.3637 42.7965 53.0709 41.5055 51.4812 41.5055C49.891 41.5055 48.5975 42.7965 48.5975 44.3838C48.5975 45.9705 49.891 47.2615 51.4812 47.2615Z" fill="#531918"/>
<path d="M51.4811 46.6807C52.7496 46.6807 53.7817 45.6505 53.7817 44.3839C53.7817 43.1167 52.7496 42.0859 51.4811 42.0859C50.2122 42.0859 49.1794 43.1167 49.1794 44.3839C49.1794 45.6505 50.2122 46.6807 51.4811 46.6807Z" fill="black"/>
<path d="M50.115 43.5007C50.115 44.0046 50.5241 44.4136 51.029 44.4136C51.5335 44.4136 51.9433 44.0046 51.9433 43.5007C51.9433 42.9971 51.5335 42.5884 51.029 42.5884C50.5241 42.5884 50.115 42.9971 50.115 43.5007Z" fill="white"/>
<path d="M38.0493 32.0312C38.0153 30.2255 35.6001 11.5847 33.0528 11.6324C30.5049 11.6797 28.7895 30.3974 28.8239 32.2037C28.857 34.0094 30.9501 35.4351 33.4974 35.3875C36.045 35.3396 38.0828 33.8374 38.0493 32.0312Z" fill="black"/>
<path d="M31.1284 34.2604C30.1091 33.7794 29.4922 33.0065 29.4768 32.1915C29.4608 31.3467 29.8527 26.5236 30.5572 21.7461C31.7613 13.5865 32.8578 12.4453 33.0638 12.299C33.2983 12.4538 34.4381 13.6074 35.9463 21.7598C36.8172 26.4675 37.3809 31.2139 37.3963 32.0434C37.4228 33.4631 35.6323 34.6954 33.486 34.7352C32.636 34.7515 31.821 34.5868 31.1284 34.2604Z" fill="#C89600"/>
<path d="M38.5004 15.6159C37.0745 18.6266 33.473 19.9136 30.4563 18.4901C27.4403 17.0672 26.1509 13.4724 27.577 10.4614C29.0026 7.45103 32.6044 6.16379 35.6208 7.58695C38.6369 9.0104 39.9265 12.6052 38.5004 15.6159Z" fill="black"/>
<path d="M30.7355 17.9011C28.0497 16.6336 26.8977 13.4219 28.1675 10.7411C29.4374 8.05977 32.6554 6.90904 35.3415 8.17682C38.0279 9.44401 39.1793 12.6566 37.9095 15.3376C36.6396 18.0187 33.4216 19.1686 30.7355 17.9011Z" fill="#704D13"/>
<path d="M57.972 32.0312C57.9379 30.2255 55.523 11.5847 52.9757 11.6324C50.4279 11.6797 48.7128 30.3974 48.7468 32.2037C48.7803 34.0094 50.8731 35.4351 53.4207 35.3875C55.968 35.3396 58.0055 33.8374 57.972 32.0312Z" fill="black"/>
<path d="M51.0515 34.2604C50.0325 33.7794 49.4153 33.0065 49.3999 32.1915C49.3836 31.3467 49.7756 26.5236 50.4803 21.7461C51.6841 13.5865 52.7809 12.4453 52.9866 12.299C53.2214 12.4538 54.3609 13.6074 55.8694 21.7598C56.74 26.4675 57.3037 31.2139 57.3191 32.0434C57.3459 33.4631 55.5551 34.6954 53.4091 34.7352C52.5589 34.7515 51.7438 34.5868 51.0515 34.2604Z" fill="#C89600"/>
<path d="M58.4233 15.6159C56.9975 18.6266 53.3959 19.9136 50.3796 18.4901C47.3635 17.0672 46.0735 13.4724 47.5 10.4614C48.9252 7.45103 52.5273 6.16379 55.5437 7.58695C58.5598 9.0104 59.8491 12.6052 58.4233 15.6159Z" fill="black"/>
<path d="M50.6587 17.9011C47.9723 16.6336 46.8203 13.4219 48.0904 10.7411C49.36 8.05977 52.5786 6.90904 55.2644 8.17682C57.9505 9.44401 59.1025 12.6566 57.8321 15.3376C56.5625 18.0187 53.3445 19.1686 50.6587 17.9011Z" fill="#704D13"/>
<path d="M43.0002 78.0649C33.7482 78.0649 27.2869 72.81 27.2869 65.2855C27.2869 61.459 28.9589 57.5322 31.8743 54.5116C34.9293 51.345 38.8804 49.6012 43.0002 49.6012C47.1199 49.6012 51.071 51.345 54.1263 54.5116C57.0411 57.5322 58.7134 61.459 58.7134 65.2855C58.7134 72.81 52.2518 78.0649 43.0002 78.0649Z" fill="black"/>
<path d="M57.5494 65.285C57.5494 72.5033 51.0356 76.9026 43 76.9026C34.9644 76.9026 28.4507 72.5033 28.4507 65.285C28.4507 58.0666 34.9644 50.7629 43 50.7629C51.0356 50.7629 57.5494 58.0666 57.5494 65.285Z" fill="#996B00"/>
<path d="M39.3329 64.4734C39.3329 64.4734 35.5751 62.2533 37.245 60.348C38.9147 58.443 41.48 61.616 41.48 61.616C41.48 61.616 37.9015 52.5673 33.3691 56.8537C28.8364 61.1394 37.9015 64.2355 39.3329 64.4734Z" fill="black"/>
<path d="M46.6668 64.4734C46.6668 64.4734 50.4246 62.2533 48.755 60.348C47.085 58.443 44.5197 61.616 44.5197 61.616C44.5197 61.616 48.0985 52.5673 52.6309 56.8537C57.1633 61.1394 48.0985 64.2355 46.6668 64.4734Z" fill="black"/>
<path d="M38.6353 29.2444L40.6198 25.7855L43.8785 29.2322L39.9042 30.4573L38.6353 29.2444Z" fill="#663202"/>
<path d="M40.6722 31.8847L42.7091 33.6273L41.7797 34.5774L39.8033 34.5852L40.6722 31.8847Z" fill="#663202"/>
<path d="M45.3277 26.6567L47.3647 28.3993L46.4355 29.3493L44.4589 29.3572L45.3277 26.6567Z" fill="#663202"/>
<path d="M43.8729 32.4655L44.7459 31.0133L46.4918 31.5942V34.2082L44.4549 34.7891L43.8729 32.4655Z" fill="#663202"/>
<path d="M58.8588 39.4363L63.5146 36.2414L65.5515 42.6311L59.7317 41.7598L58.8588 39.4363Z" fill="#663202"/>
<path d="M64.3875 46.1163L67.0063 44.3736L69.0432 47.278L68.1703 53.6677L65.2604 51.9251L64.3875 46.1163Z" fill="#663202"/>
<path d="M65.3531 59.1791L68.4931 58.963L68.8181 62.4934L64.8843 67.6089L63.2236 64.6551L65.3531 59.1791Z" fill="#663202"/>
<path d="M68.7523 53.3774L71.0802 52.7965V55.4105L68.1703 56.5723L68.7523 53.3774Z" fill="#663202"/>
<path d="M59.4407 32.756L61.4776 34.4987L60.5484 35.4487L58.5718 35.4565L59.4407 32.756Z" fill="#663202"/>
<path d="M60.6046 45.2448L61.4776 43.7926L63.2235 44.3735V46.9875L61.1866 47.5684L60.6046 45.2448Z" fill="#663202"/>
<path d="M60.6046 67.8994L61.4776 66.4472L63.2235 67.028V69.642L61.1866 70.2229L60.6046 67.8994Z" fill="#663202"/>
<path d="M63.3889 56.24L62.863 54.6298L64.4478 53.6954L66.4244 55.4105L65.5276 57.3259L63.3889 56.24Z" fill="#663202"/>
<path d="M27.1413 39.4363L22.4855 36.2414L20.4486 42.6311L26.2683 41.7598L27.1413 39.4363Z" fill="#663202"/>
<path d="M21.6126 46.1163L18.9937 44.3736L16.9568 47.278L17.8297 53.6677L20.7396 51.9251L21.6126 46.1163Z" fill="#663202"/>
<path d="M20.6469 59.1791L17.5069 58.963L17.1821 62.4934L21.116 67.6089L22.7764 64.6551L20.6469 59.1791Z" fill="#663202"/>
<path d="M17.2478 53.3774L14.9199 52.7965V55.4105L17.8298 56.5723L17.2478 53.3774Z" fill="#663202"/>
<path d="M26.5594 32.756L24.5225 34.4987L25.4519 35.4487L27.4283 35.4565L26.5594 32.756Z" fill="#663202"/>
<path d="M25.3955 45.2448L24.5225 43.7926L22.7766 44.3735V46.9875L24.8135 47.5684L25.3955 45.2448Z" fill="#663202"/>
<path d="M25.3955 67.8994L24.5225 66.4472L22.7766 67.028V69.642L24.8135 70.2229L25.3955 67.8994Z" fill="#663202"/>
<path d="M22.6114 56.24L23.1369 54.6298L21.5522 53.6954L19.5756 55.4105L20.4727 57.3259L22.6114 56.24Z" fill="#663202"/>
</svg>
