<svg width="60" height="60" viewBox="0 0 60 60" fill="none" xmlns="http://www.w3.org/2000/svg">
<path d="M18.7306 13.2609C18.7306 13.2609 12.1373 5.12464 4.48899 4.07481C1.06044 10.6363 8.18126 25.8589 8.18126 25.8589L18.7306 13.2609Z" fill="black"/>
<path d="M8.46133 23.8848C6.47172 19.1566 3.40212 9.98364 5.12325 5.24888C10.7213 6.39976 15.7109 11.4621 17.3465 13.273L8.46133 23.8848Z" fill="#ECDDA2"/>
<path d="M9.13932 19.7957C7.6305 15.5312 6.56712 11.0109 6.74593 7.92989C9.9387 9.20413 13.453 12.3665 15.1598 14.0483L9.13932 19.7957Z" fill="#88793E"/>
<path d="M41.2695 13.2609C41.2695 13.2609 47.8629 5.12464 55.5112 4.07481C58.9397 10.6363 51.8189 25.8589 51.8189 25.8589L41.2695 13.2609Z" fill="black"/>
<path d="M51.539 23.8848C53.5286 19.1566 56.5982 9.98364 54.8771 5.24888C49.2791 6.39976 44.2895 11.4621 42.6538 13.273L51.539 23.8848Z" fill="#ECDDA2"/>
<path d="M50.8609 19.7957C52.3697 15.5312 53.4331 11.0109 53.2542 7.92989C50.0615 9.20413 46.5472 12.3665 44.8403 14.0483L50.8609 19.7957Z" fill="#88793E"/>
<path d="M56.3735 34.484C56.3735 47.5295 44.5659 55.4807 30.0001 55.4807C15.4343 55.4807 3.62671 47.5295 3.62671 34.484C3.62671 21.4382 15.4343 8.23812 30.0001 8.23812C44.5659 8.23812 56.3735 21.4382 56.3735 34.484Z" fill="black"/>
<path d="M29.9999 54.4312C15.0928 54.4312 4.6814 46.2283 4.6814 34.484C4.6814 28.3763 7.38995 22.0752 12.1113 17.1974C17.0476 12.0965 23.4007 9.28744 29.9999 9.28744C36.5988 9.28744 42.9519 12.0965 47.889 17.1974C52.6103 22.0752 55.3189 28.3763 55.3189 34.484C55.3189 46.2283 44.9069 54.4312 29.9999 54.4312Z" fill="#ECDDA2"/>
<path d="M30.0002 48.5178C31.5385 48.5178 43.1869 46.9866 43.1869 39.3341C38.1319 35.6159 30.0002 35.8348 30.0002 35.8348C30.0002 35.8348 21.8685 35.6159 16.8135 39.3341C16.8135 46.9866 28.4618 48.5178 30.0002 48.5178Z" fill="white"/>
<path d="M33.2407 41.2424C33.1025 41.2012 32.9575 41.2786 32.9142 41.4153L32.9134 41.4151L32.9018 41.4437C32.8718 41.5111 32.7808 41.6802 32.5677 41.8329C32.3541 41.9849 32.0141 42.1303 31.4468 42.1313C31.1285 42.1305 30.9151 42.0547 30.7569 41.9502C30.5214 41.7948 30.395 41.5526 30.3291 41.334C30.2964 41.2261 30.2798 41.1269 30.2716 41.0566C30.2677 41.0214 30.2658 40.9938 30.2648 40.9757L30.264 40.9566V40.9537V40.9529V39.5141C30.264 39.3689 30.1458 39.2516 30.0002 39.2516C29.8547 39.2516 29.7365 39.3689 29.7365 39.5141V40.9537C29.7376 40.9736 29.7241 41.2988 29.569 41.5844C29.492 41.7279 29.3847 41.8605 29.2285 41.9599C29.0719 42.0589 28.8617 42.1305 28.5536 42.1313C27.8843 42.1292 27.5314 41.9298 27.3291 41.7497C27.2286 41.6584 27.1661 41.5689 27.1297 41.5051C27.1116 41.4731 27.0999 41.4476 27.0936 41.4321L27.0873 41.4164L27.087 41.4151L27.0865 41.4153C27.043 41.2786 26.8979 41.2012 26.7597 41.2424C26.62 41.2841 26.5408 41.4303 26.5828 41.5691C26.592 41.5988 26.6782 41.8691 26.9744 42.1379C27.2695 42.4074 27.7756 42.6583 28.5536 42.6562C28.9587 42.657 29.2876 42.5528 29.5363 42.387C29.7478 42.246 29.8953 42.0683 30.0008 41.8885C30.106 42.0681 30.2532 42.2471 30.4644 42.387C30.7128 42.5528 31.0417 42.657 31.4468 42.6562C32.2246 42.6583 32.7307 42.4074 33.0261 42.1379C33.3225 41.8691 33.4085 41.5988 33.4177 41.5691C33.4594 41.4303 33.3802 41.2841 33.2407 41.2424Z" fill="black"/>
<path d="M20.7685 26.487C20.1147 26.487 19.4997 26.6539 18.963 26.9463L16.6873 26.3395L17.326 28.7127C17.1153 29.1809 16.9953 29.6977 16.9953 30.243C16.9953 32.3136 18.6879 33.998 20.7685 33.998C22.8502 33.998 24.5434 32.3136 24.5434 30.243C24.5434 28.172 22.8502 26.487 20.7685 26.487Z" fill="white"/>
<path d="M20.7686 33.2107C19.125 33.2107 17.7871 31.879 17.7871 30.2431C17.7871 28.6064 19.125 27.2747 20.7686 27.2747C22.4138 27.2747 23.7523 28.6064 23.7523 30.2431C23.7523 31.879 22.4138 33.2107 20.7686 33.2107Z" fill="black"/>
<path d="M20.7686 32.8435C19.3283 32.8435 18.156 31.6769 18.156 30.2431C18.156 28.8087 19.3283 27.6418 20.7686 27.6418C22.2099 27.6418 23.3827 28.8087 23.3827 30.2431C23.3827 31.6769 22.2099 32.8435 20.7686 32.8435Z" fill="#531918"/>
<path d="M20.7694 32.3186C19.6197 32.3186 18.6841 31.3877 18.6841 30.2431C18.6841 29.098 19.6197 28.1665 20.7694 28.1665C21.9192 28.1665 22.8552 29.098 22.8552 30.2431C22.8552 31.3877 21.9192 32.3186 20.7694 32.3186Z" fill="black"/>
<path d="M22.0076 29.4449C22.0076 29.9002 21.6367 30.2698 21.1786 30.2698C20.7212 30.2698 20.3503 29.9002 20.3503 29.4449C20.3503 28.9898 20.7212 28.6205 21.1786 28.6205C21.6367 28.6205 22.0076 28.9898 22.0076 29.4449Z" fill="white"/>
<path d="M39.2316 26.487C39.8854 26.487 40.5004 26.6539 41.0371 26.9463L43.3129 26.3395L42.6741 28.7127C42.8849 29.1809 43.0049 29.6977 43.0049 30.243C43.0049 32.3136 41.3122 33.998 39.2316 33.998C37.15 33.998 35.4568 32.3136 35.4568 30.243C35.4568 28.172 37.15 26.487 39.2316 26.487Z" fill="white"/>
<path d="M39.2317 33.2107C40.8753 33.2107 42.2132 31.879 42.2132 30.2431C42.2132 28.6064 40.8753 27.2747 39.2317 27.2747C37.5865 27.2747 36.248 28.6064 36.248 30.2431C36.248 31.879 37.5865 33.2107 39.2317 33.2107Z" fill="black"/>
<path d="M39.2316 32.8435C40.6718 32.8435 41.8441 31.6769 41.8441 30.2431C41.8441 28.8087 40.6718 27.6418 39.2316 27.6418C37.7903 27.6418 36.6174 28.8087 36.6174 30.2431C36.6174 31.6769 37.7903 32.8435 39.2316 32.8435Z" fill="#531918"/>
<path d="M39.2314 32.3186C40.3811 32.3186 41.3167 31.3877 41.3167 30.2431C41.3167 29.098 40.3811 28.1665 39.2314 28.1665C38.0816 28.1665 37.1455 29.098 37.1455 30.2431C37.1455 31.3877 38.0816 32.3186 39.2314 32.3186Z" fill="black"/>
<path d="M37.9927 29.4449C37.9927 29.9002 38.3635 30.2698 38.8217 30.2698C39.2791 30.2698 39.6499 29.9002 39.6499 29.4449C39.6499 28.9898 39.2791 28.6205 38.8217 28.6205C38.3635 28.6205 37.9927 28.9898 37.9927 29.4449Z" fill="white"/>
<path d="M26.7034 36.2968C26.7034 34.9375 28.1792 34.5197 30 34.5197C31.8209 34.5197 33.2967 34.9375 33.2967 36.2968C33.2967 37.6558 31.8209 39.6353 30 39.6353C28.1792 39.6353 26.7034 37.6558 26.7034 36.2968Z" fill="#892817"/>
<path d="M24.7923 20.5686C22.5321 15.5247 18.3677 13.7169 16.9285 13.2261C15.5597 14.1105 14.2524 15.1354 13.0237 16.2966C15.1823 15.9745 20.1308 17.5532 24.7923 20.5686Z" fill="#88793E"/>
<path d="M9.89096 19.7906C8.46363 21.6774 7.30452 23.7086 6.4458 25.8127C8.3162 25.1183 13.9514 22.9966 19.896 22.8173C15.8453 19.7812 11.2684 19.7282 9.89096 19.7906Z" fill="#88793E"/>
<path d="M5.71932 27.8374C5.1072 29.8093 4.75669 31.8226 4.69287 33.8223C6.61444 33.0089 10.4394 30.5699 16.5058 30.6473C12.1402 28.4049 7.18279 27.9311 5.71932 27.8374Z" fill="#88793E"/>
<path d="M27.8052 18.6526C28.296 14.8157 26.3803 10.8636 25.7447 9.68043C24.6478 9.8841 23.5662 10.1678 22.5042 10.5258C23.2872 11.2617 25.9649 14.0039 27.8052 18.6526Z" fill="#88793E"/>
<path d="M35.2078 20.5686C39.869 17.5532 44.8172 15.9748 46.9764 16.2963C45.7474 15.1354 44.4398 14.1105 43.071 13.2261C41.6318 13.7171 37.468 15.5247 35.2078 20.5686Z" fill="#88793E"/>
<path d="M40.1045 22.8175C46.0491 22.9968 51.684 25.1185 53.5547 25.813C52.6957 23.7089 51.5368 21.6777 50.1095 19.7909C48.732 19.7284 44.1549 19.7814 40.1045 22.8175Z" fill="#88793E"/>
<path d="M55.3073 33.8223C55.2437 31.8226 54.8932 29.809 54.2808 27.8374C52.8171 27.9311 47.86 28.4049 43.4944 30.647C49.5613 30.5696 53.386 33.0086 55.3073 33.8223Z" fill="#88793E"/>
<path d="M32.1949 18.6526C34.0348 14.0044 36.7125 11.2623 37.496 10.5258C36.4339 10.1681 35.3521 9.88436 34.2552 9.68043C33.6196 10.8639 31.7044 14.8157 32.1949 18.6526Z" fill="#88793E"/>
<rect x="0.5" y="0.5" width="59" height="59" rx="29.5" stroke="#0C1339" stroke-opacity="0.1"/>
</svg>
