<svg width="18" height="18" viewBox="0 0 18 18" fill="none" xmlns="http://www.w3.org/2000/svg">
<path d="M15.75 16.5H2.25C1.9425 16.5 1.6875 16.245 1.6875 15.9375C1.6875 15.63 1.9425 15.375 2.25 15.375H15.75C16.0575 15.375 16.3125 15.63 16.3125 15.9375C16.3125 16.245 16.0575 16.5 15.75 16.5Z" fill="#0C1339"/>
<path d="M14.2651 2.61C12.8101 1.155 11.3851 1.1175 9.89256 2.61L8.98506 3.5175C8.91006 3.5925 8.88006 3.7125 8.91006 3.8175C9.48006 5.805 11.0701 7.395 13.0576 7.965C13.0876 7.9725 13.1176 7.98 13.1476 7.98C13.2301 7.98 13.3051 7.95 13.3651 7.89L14.2651 6.9825C15.0076 6.2475 15.3676 5.535 15.3676 4.815C15.3751 4.0725 15.0151 3.3525 14.2651 2.61Z" fill="#0C1339"/>
<path d="M11.7075 8.6476C11.49 8.5426 11.28 8.4376 11.0775 8.3176C10.9125 8.2201 10.755 8.1151 10.5975 8.0026C10.47 7.9201 10.32 7.8001 10.1775 7.6801C10.1625 7.6726 10.11 7.6276 10.05 7.5676C9.8025 7.3576 9.525 7.0876 9.2775 6.7876C9.255 6.7726 9.2175 6.7201 9.165 6.6526C9.09 6.5626 8.9625 6.4126 8.85 6.2401C8.76 6.1276 8.65499 5.9626 8.5575 5.7976C8.4375 5.5951 8.3325 5.3926 8.2275 5.1826C8.08983 4.88759 7.70264 4.79996 7.47244 5.03015L3.255 9.2476C3.1575 9.3451 3.06749 9.5326 3.04499 9.6601L2.63999 12.5326C2.56499 13.0426 2.7075 13.5226 3.0225 13.8451C3.2925 14.1076 3.66749 14.2501 4.07249 14.2501C4.16249 14.2501 4.2525 14.2426 4.3425 14.2276L7.2225 13.8226C7.3575 13.8001 7.545 13.7101 7.635 13.6126L11.8594 9.38819C12.085 9.1626 12.0002 8.77445 11.7075 8.6476Z" fill="#0C1339"/>
</svg>
