<svg width="34" height="34" viewBox="0 0 34 34" fill="none" xmlns="http://www.w3.org/2000/svg">
<path d="M12.75 31.1666H21.25C28.3334 31.1666 31.1667 28.3333 31.1667 21.2499V12.7499C31.1667 5.66659 28.3334 2.83325 21.25 2.83325H12.75C5.66671 2.83325 2.83337 5.66659 2.83337 12.7499V21.2499C2.83337 28.3333 5.66671 31.1666 12.75 31.1666Z" stroke="#4D17C0" stroke-width="1.5" stroke-linecap="round" stroke-linejoin="round"/>
<path d="M12.75 14.1667C14.3148 14.1667 15.5833 12.8981 15.5833 11.3333C15.5833 9.76853 14.3148 8.5 12.75 8.5C11.1852 8.5 9.91663 9.76853 9.91663 11.3333C9.91663 12.8981 11.1852 14.1667 12.75 14.1667Z" stroke="#4D17C0" stroke-width="1.5" stroke-linecap="round" stroke-linejoin="round"/>
<path d="M3.78247 26.8457L10.7666 22.1565C11.8858 21.4057 13.5008 21.4907 14.5066 22.3549L14.9741 22.7657C16.0791 23.7149 17.8641 23.7149 18.9691 22.7657L24.8625 17.7082C25.9675 16.759 27.7525 16.759 28.8575 17.7082L31.1666 19.6915" stroke="#4D17C0" stroke-width="1.5" stroke-linecap="round" stroke-linejoin="round"/>
</svg>
