<svg width="27" height="27" viewBox="0 0 27 27" fill="none" xmlns="http://www.w3.org/2000/svg">
<path d="M9.00007 7V6.2C9.00007 4.43 9.00007 3 12.2001 3H13.8001C17.0001 3 17.0001 4.43 17.0001 6.2V7M15.0001 15.02C15.0001 15.01 15.0001 15.01 15.0001 15V14C15.0001 13 15.0001 13 14.0001 13H12.0001C11.0001 13 11.0001 13 11.0001 14V15.03M15.0001 15.02C15.0001 16.11 14.9901 17 13.0001 17C11.0201 17 11.0001 16.12 11.0001 15.03M15.0001 15.02C17.7001 14.68 20.3401 13.68 22.6501 12M11.0001 15.03C8.41007 14.74 5.87007 13.81 3.62007 12.27M9.00007 23H17.0001C21.0201 23 21.7401 21.39 21.9501 19.43L22.7001 11.43C22.9701 8.99 22.2701 7 18.0001 7H8.00007C3.73007 7 3.03007 8.99 3.30007 11.43L4.05007 19.43C4.26007 21.39 4.98007 23 9.00007 23Z" stroke="#0C1339" stroke-width="1.5" stroke-miterlimit="10" stroke-linecap="round" stroke-linejoin="round"/>
</svg>
