<svg width="27" height="27" viewBox="0 0 27 27" fill="none" xmlns="http://www.w3.org/2000/svg">
<path d="M12.9999 14.4299C14.723 14.4299 16.1199 13.0331 16.1199 11.3099C16.1199 9.58681 14.723 8.18994 12.9999 8.18994C11.2768 8.18994 9.87988 9.58681 9.87988 11.3099C9.87988 13.0331 11.2768 14.4299 12.9999 14.4299Z" stroke="#0C1339" stroke-width="1.5"/>
<path d="M4.61995 9.49C6.58995 0.830002 19.42 0.840003 21.38 9.5C22.53 14.58 19.37 18.88 16.6 21.54C15.5953 22.5097 14.2983 23.9947 13 23.995C11.7008 23.9953 10.4003 22.5103 9.38995 21.54C6.62995 18.88 3.46995 14.57 4.61995 9.49Z" stroke="#0C1339" stroke-width="1.5"/>
</svg>
