<svg width="32" height="32" viewBox="0 0 32 32" fill="none" xmlns="http://www.w3.org/2000/svg">
<g clip-path="url(#clip0_301_125)">
<path d="M31.6812 16.3562C31.6812 15.0437 31.575 14.0812 31.3437 13.0874H16.3187V19.0249H25.1375C24.9625 20.4999 24 22.7249 21.8687 24.2187L21.8375 24.4187L26.5875 28.0999L26.9187 28.1312C29.9375 25.3312 31.6812 21.2249 31.6812 16.3562Z" fill="#4285F4"/>
<path d="M16.3188 32.0001C20.6375 32.0001 24.2625 30.5751 26.9125 28.1251L21.8625 24.2126C20.5125 25.1563 18.7 25.8126 16.3188 25.8126C12.0875 25.8126 8.49375 23.0188 7.21875 19.1626L7.03125 19.1813L2.09375 23.0063L2.03125 23.1876C4.65625 28.4063 10.0625 32.0001 16.3188 32.0001Z" fill="#34A853"/>
<path d="M7.21873 19.1624C6.88123 18.1687 6.68748 17.0999 6.68748 15.9999C6.68748 14.8999 6.88123 13.8312 7.19998 12.8374L7.19373 12.6249L2.19373 8.74365L2.03123 8.81865C0.943726 10.9874 0.318726 13.4249 0.318726 15.9999C0.318726 18.5749 0.943726 21.0124 2.02498 23.1812L7.21873 19.1624Z" fill="#FBBC05"/>
<path d="M16.3187 6.1875C19.325 6.1875 21.35 7.4875 22.5062 8.56875L27.0187 4.1625C24.25 1.58125 20.6375 0 16.3187 0C10.0625 0 4.65621 3.59375 2.02496 8.81875L7.19996 12.8375C8.49996 8.975 12.0875 6.1875 16.3187 6.1875Z" fill="#EB4335"/>
</g>
<defs>
<clipPath id="clip0_301_125">
<rect width="32" height="32" fill="white"/>
</clipPath>
</defs>
</svg>
