<svg width="136" height="150" viewBox="0 0 136 150" fill="none" xmlns="http://www.w3.org/2000/svg">
<g opacity="0.1">
<path d="M68.1836 119.173C67.1243 120.684 66.0651 122.298 65.04 123.911C60.4272 131.293 56.3269 139.877 52.8759 149.422H64.0833C66.9877 142.006 70.302 135.311 73.924 129.508C74.8465 128.031 75.8374 126.555 76.7942 125.182C76.8283 125.147 76.8625 125.079 76.8967 125.044C79.0493 121.748 81.817 118.624 85.3022 115.43C81.2703 114.881 77.0333 114.091 72.9331 112.993C71.1563 115.018 69.5845 117.079 68.1836 119.173Z" fill="#0C1339"/>
<path d="M173.697 56.8888C173.697 56.8545 173.697 56.8201 173.663 56.7514C173.356 54.5883 172.843 52.4596 172.126 50.3994C168.811 40.5109 161.26 32.1675 151.419 27.4979C149.95 26.7768 148.481 26.1588 146.977 25.6438C144.517 20.0471 137.273 7.37747 121.111 2.26153C105.325 -2.75141 92.9561 1.78083 87.9674 4.25297C83.9013 2.94823 75.2224 0.647772 65.2792 1.1628C52.8075 1.81517 36.0647 7.06845 26.1899 28.0816C20.1078 30.7941 3.57001 39.8929 0.563142 59.7043C-1.07697 70.4168 0.870666 79.962 6.33771 87.9965C10.2671 93.7648 15.9392 98.6747 23.2855 102.589H23.3197C35.9964 109.387 45.3587 115.842 41.0876 131.362H51.885C53.8668 121.714 51.885 113.267 46.0421 106.263C40.8825 100.048 33.6046 96.1339 28.2742 93.2841H28.24C14.4699 85.902 8.83204 75.4298 10.9505 61.2837C12.0439 54.039 15.8025 47.8243 22.1238 42.8114C27.0783 38.8628 31.8278 37.1461 31.8619 37.1461C33.2629 36.6654 34.3904 35.601 34.9713 34.2619C41.0192 20.1502 51.3041 12.5621 65.5526 11.7037C76.76 11.0513 86.3956 14.8625 86.4981 14.8969C88.1041 15.5492 89.8809 15.4119 91.316 14.4505C91.9652 14.0385 102.728 7.51481 118.002 12.3561C133.241 17.163 137.888 30.9657 138.059 31.5494C138.572 33.2662 139.938 34.5709 141.681 35.0516C143.458 35.5323 145.2 36.219 146.909 37.0431C146.943 37.0431 146.943 37.0774 146.977 37.0774C154.255 40.5452 159.825 46.6569 162.251 53.833C162.729 55.275 163.105 56.7858 163.344 58.2965C164.813 70.2795 158.424 79.035 152.82 84.2539C145.576 91.018 135.326 95.9965 124.767 97.988C124.699 97.988 124.631 98.0223 124.562 98.0223C122.444 98.503 120.257 98.915 118.07 99.2584C113.697 99.9108 109.221 100.254 104.676 100.288C115.132 92.048 125.075 82.2281 126.51 67.052C126.51 66.949 126.51 66.846 126.544 66.743C126.613 65.1979 126.544 63.6185 126.339 62.1077C125.69 57.1291 123.777 52.6656 120.633 48.8544C114.038 40.9229 103.07 37.9701 92.6486 41.335C92.6144 41.335 92.5802 41.3693 92.5119 41.3693C90.7693 41.9873 89.095 42.8114 87.5574 43.8071C86.3615 44.5625 85.2681 45.4552 84.243 46.4509C79.3227 42.159 72.1814 40.3049 64.7667 41.747C64.7325 41.747 64.6642 41.7813 64.63 41.7813C58.4454 43.1547 53.7301 46.3136 49.8007 51.6698C49.7665 51.7042 49.7665 51.7385 49.7323 51.7729C45.5637 57.7472 43.9919 64.8202 45.222 72.271C46.2471 78.5543 49.2881 84.9063 53.7643 90.1596C55.2335 91.8763 56.8736 93.4901 58.6163 94.9322C60.5639 96.6489 62.6824 98.2627 65.0059 99.7734C69.0378 102.383 73.6164 104.683 78.5368 106.537C84.5847 108.666 93.3661 110.795 104.403 110.829C106.624 110.829 108.811 110.761 110.997 110.623C111.237 110.623 111.476 110.589 111.715 110.555C114.38 110.349 116.977 110.074 119.574 109.696C122 109.319 124.392 108.872 126.749 108.357C152.034 103.516 177.046 83.8762 173.697 56.8888ZM89.0608 98.812C88.7875 98.7434 88.5483 98.6747 88.2749 98.606C81.7487 96.7863 75.6666 94.1081 70.6779 90.8806C68.7644 89.6445 67.0218 88.3055 65.4501 86.8977C65.4159 86.8634 65.3475 86.8291 65.3134 86.7604C64.015 85.696 62.819 84.4943 61.6915 83.2239C56.3269 76.9062 52.1925 66.4683 58.2404 57.7815C59.368 56.2364 60.5297 55.0347 61.8623 54.142C61.8623 54.142 61.8965 54.142 61.9306 54.1076C63.3316 53.1119 64.9375 52.4596 66.7826 52.0475C67.3294 51.9445 67.9102 51.8759 68.5253 51.8415C70.1654 51.6698 72.0447 51.8072 73.9581 52.4939C74.0265 52.5282 74.0606 52.5282 74.129 52.5626C74.1973 52.5969 74.2998 52.6312 74.3682 52.6312C74.5732 52.6999 74.7782 52.8029 74.9832 52.9059C75.0857 52.9402 75.1882 53.0089 75.2907 53.0433C79.4593 55.0004 82.2612 57.9532 83.7646 59.9446C85.7806 57.2665 90.0859 52.7342 96.7147 51.1205C98.2865 50.7085 99.8582 50.5024 101.362 50.5368C101.43 50.5368 101.498 50.5368 101.567 50.5368C102.25 50.5368 102.831 50.6055 103.343 50.6741C106.931 51.1548 110.177 52.8716 112.467 55.6184C114.312 57.8502 115.439 60.494 115.815 63.4468C115.918 64.3395 115.986 65.2666 115.952 66.1936C114.585 79.756 103.514 88.0308 91.7943 96.7863C90.9401 97.4386 89.9834 98.1253 89.0608 98.812Z" fill="#0C1339"/>
</g>
</svg>
