<svg width="22" height="18" viewBox="0 0 22 18" fill="none" xmlns="http://www.w3.org/2000/svg">
<path d="M8.95002 14.3218C8.8232 14.4969 8.69637 14.6839 8.57364 14.871C8.02133 15.7265 7.53039 16.7213 7.11719 17.8275H8.45909C8.80683 16.968 9.20368 16.192 9.63734 15.5196C9.7478 15.3485 9.86644 15.1774 9.98099 15.0182C9.98509 15.0142 9.98918 15.0063 9.99327 15.0023C10.251 14.6203 10.5824 14.2582 10.9997 13.8881C10.5169 13.8244 10.0096 13.7329 9.51869 13.6056C9.30595 13.8404 9.11776 14.0791 8.95002 14.3218Z" fill="white"/>
<path d="M21.4461 6.98721C21.4461 6.98309 21.4462 6.97898 21.442 6.97076C21.405 6.71163 21.3432 6.45662 21.2568 6.20983C20.8574 5.02526 19.9475 4.02578 18.7618 3.4664C18.5848 3.38002 18.4077 3.30599 18.2266 3.24429C17.9302 2.57386 17.0574 1.05613 15.11 0.443277C13.2079 -0.157235 11.7175 0.385694 11.1164 0.681836C10.6265 0.525539 9.58075 0.249961 8.38268 0.311658C6.87995 0.389807 4.86258 1.01911 3.67275 3.53632C2.93991 3.86126 0.947246 4.95123 0.584944 7.32448C0.387324 8.60777 0.621998 9.75121 1.28073 10.7137C1.75419 11.4047 2.43763 11.9928 3.3228 12.4617H3.32691C4.85435 13.2761 5.98243 14.0494 5.46779 15.9085H6.76879C7.00758 14.7527 6.76879 13.7409 6.06477 12.9018C5.44309 12.1574 4.56615 11.6885 3.92389 11.3471H3.91977C2.26059 10.4628 1.58128 9.20828 1.83653 7.51368C1.96828 6.64582 2.42116 5.90135 3.18282 5.30084C3.77979 4.82783 4.35206 4.62218 4.35618 4.62218C4.52498 4.5646 4.66084 4.43709 4.73084 4.27668C5.45956 2.5862 6.6988 1.6772 8.41561 1.57438C9.76601 1.49623 10.927 1.95278 10.9394 1.95689C11.1329 2.03504 11.347 2.01859 11.5199 1.90342C11.5981 1.85407 12.895 1.07258 14.7353 1.65253C16.5715 2.22836 17.1315 3.88182 17.152 3.95174C17.2138 4.1574 17.3785 4.3137 17.5885 4.37128C17.8025 4.42886 18.0125 4.51113 18.2184 4.60984C18.2225 4.60984 18.2225 4.61395 18.2266 4.61395C19.1035 5.02938 19.7746 5.76151 20.0669 6.62114C20.1246 6.79389 20.1699 6.97487 20.1987 7.15584C20.3757 8.59131 19.6058 9.64015 18.9306 10.2653C18.0578 11.0756 16.8227 11.672 15.5505 11.9106C15.5423 11.9106 15.534 11.9147 15.5258 11.9147C15.2705 11.9723 15.007 12.0216 14.7436 12.0628C14.2166 12.1409 13.6772 12.182 13.1297 12.1862C14.3895 11.199 15.5876 10.0227 15.7605 8.20468C15.7605 8.19234 15.7605 8.18001 15.7646 8.16767C15.7728 7.98258 15.7646 7.79337 15.7399 7.6124C15.6617 7.016 15.4311 6.4813 15.0523 6.02474C14.2577 5.07462 12.9362 4.72089 11.6805 5.12398C11.6763 5.12398 11.6722 5.12809 11.664 5.12809C11.454 5.20213 11.2523 5.30084 11.067 5.42012C10.9229 5.51061 10.7912 5.61755 10.6677 5.73683C10.0748 5.22269 9.21433 5.00058 8.32092 5.17333C8.31681 5.17333 8.30857 5.17745 8.30445 5.17745C7.55926 5.34197 6.99111 5.72038 6.51764 6.36202C6.51353 6.36613 6.51353 6.37024 6.50941 6.37436C6.00713 7.09003 5.81774 7.93733 5.96596 8.82987C6.08947 9.58257 6.45589 10.3435 6.99522 10.9728C7.17226 11.1784 7.36988 11.3718 7.57985 11.5445C7.81452 11.7502 8.06978 11.9435 8.34974 12.1245C8.83556 12.4371 9.38724 12.7126 9.9801 12.9347C10.7088 13.1898 11.7669 13.4448 13.0967 13.4489C13.3643 13.4489 13.6278 13.4406 13.8913 13.4242C13.9201 13.4242 13.949 13.4201 13.9778 13.416C14.2989 13.3913 14.6118 13.3584 14.9247 13.3131C15.217 13.2679 15.5052 13.2144 15.7893 13.1527C18.8359 12.5728 21.8496 10.2201 21.4461 6.98721ZM11.2482 12.0093C11.2152 12.0011 11.1864 11.9928 11.1535 11.9846C10.3671 11.7666 9.63427 11.4458 9.03318 11.0592C8.80262 10.9111 8.59265 10.7507 8.40326 10.5821C8.39915 10.5779 8.39091 10.5738 8.38679 10.5656C8.23035 10.4381 8.08625 10.2941 7.95039 10.1419C7.30401 9.38514 6.80584 8.13476 7.53456 7.09415C7.67043 6.90906 7.81041 6.7651 7.97097 6.65816C7.97097 6.65816 7.97509 6.65816 7.97921 6.65405C8.14801 6.53477 8.34151 6.45662 8.56383 6.40726C8.6297 6.39492 8.69969 6.3867 8.7738 6.38258C8.97142 6.36202 9.19786 6.37847 9.42842 6.46073C9.43665 6.46484 9.44077 6.46485 9.449 6.46896C9.45723 6.47307 9.46959 6.47718 9.47782 6.47718C9.50252 6.48541 9.52722 6.49775 9.55193 6.51009C9.56428 6.5142 9.57663 6.52243 9.58898 6.52654C10.0913 6.76099 10.4289 7.11471 10.61 7.35327C10.8529 7.03245 11.3717 6.48952 12.1704 6.29621C12.3598 6.24685 12.5492 6.22217 12.7303 6.22629C12.7385 6.22629 12.7468 6.22629 12.755 6.22629C12.8374 6.22629 12.9073 6.23451 12.9691 6.24274C13.4014 6.30032 13.7925 6.50598 14.0684 6.83502C14.2907 7.10237 14.4265 7.41908 14.4718 7.77281C14.4842 7.87975 14.4924 7.9908 14.4883 8.10186C14.3236 9.72653 12.9897 10.7178 11.5775 11.7666C11.4746 11.8448 11.3593 11.927 11.2482 12.0093Z" fill="white"/>
</svg>
