<svg width="32" height="32" viewBox="0 0 32 32" fill="none" xmlns="http://www.w3.org/2000/svg">
<path d="M13.3333 25.3333C13.3333 26.8 14.5333 28 15.9999 28C17.4666 28 18.6666 26.8 18.6666 25.3333C18.6666 23.8667 17.4666 22.6667 15.9999 22.6667C14.5333 22.6667 13.3333 23.8667 13.3333 25.3333Z" stroke="white" stroke-width="1.5"/>
<path d="M13.3333 6.66671C13.3333 8.13337 14.5333 9.33337 15.9999 9.33337C17.4666 9.33337 18.6666 8.13337 18.6666 6.66671C18.6666 5.20004 17.4666 4.00004 15.9999 4.00004C14.5333 4.00004 13.3333 5.20004 13.3333 6.66671Z" stroke="white" stroke-width="1.5"/>
<path d="M13.3333 16C13.3333 17.4666 14.5333 18.6666 15.9999 18.6666C17.4666 18.6666 18.6666 17.4666 18.6666 16C18.6666 14.5333 17.4666 13.3333 15.9999 13.3333C14.5333 13.3333 13.3333 14.5333 13.3333 16Z" stroke="white" stroke-width="1.5"/>
</svg>
