<svg width="16" height="16" viewBox="0 0 16 16" fill="none" xmlns="http://www.w3.org/2000/svg">
<path d="M10.5327 6.80717C10.5327 6.80717 10.5231 6.54619 10.6665 5.66671C10.8099 4.78723 10.9169 3.92932 10.7556 3.38081C10.0103 0.84627 6.75725 0.602028 5.69025 3.0005L5.23498 4.02389L3.80558 3.55003C2.47906 3.2768 1.26438 3.86405 0.856804 5.1761L0.812567 5.31851C0.471822 6.41543 0.737875 7.62479 1.4998 8.44239L1.74412 8.70455C2.13237 9.12116 2.58509 9.46224 3.08212 9.71258L5.6665 11L8.16868 11.9735L8.53882 12.1863M11.7985 8.59313L11.2607 7.57016C10.8199 6.7317 9.87509 6.36362 9.03571 6.70336C7.95714 7.13991 7.38123 8.40155 7.72096 9.58358L8.04269 10.703C8.07706 10.8226 8.11962 10.9393 8.17001 11.0522L9.78342 14.6666L13.1912 13.0292C13.7839 12.6951 14.0555 12.5553 14.5938 11.9734C15.1322 11.3916 15.4694 10.6204 15.28 9.82018C14.9403 8.38416 13.4387 7.66679 12.2169 8.35682L11.7985 8.59313Z" stroke="white" stroke-linecap="round"/>
</svg>
